<svg xmlns="http://www.w3.org/2000/svg" width="80" height="81" viewBox="0 0 80 81">
    <g fill="none" fill-rule="nonzero">
        <g fill="#C7A17A">
            <path d="M2 49.158h41.22v26.218H2z"/>
            <path d="M43.22 57.023H78v-28.84H39.356v7.866h3.864z"/>
        </g>
        <g fill="#151D28">
            <path d="M80 9.139V3.956C80 1.813 78.263.07 76.129.07H40c-2.134 0-3.871 1.744-3.871 3.887V9.14c0 1.144.505 2.163 1.29 2.876v21.74H3.871C1.737 33.755 0 35.499 0 37.64v36.277c0 3.572 2.894 6.478 6.452 6.478h30.967a6.42 6.42 0 0 0 1.29-.13v.13h37.42c2.134 0 3.871-1.744 3.871-3.887v-5.182a3.874 3.874 0 0 0-1.29-2.876V12.015A3.874 3.874 0 0 0 80 9.139zm-2.58-5.183V9.14c0 .713-.58 1.295-1.291 1.295h-5.161V2.661h5.161c.711 0 1.29.581 1.29 1.295zm-29.678 6.478V2.661h5.161v7.773h-5.161zm7.742-7.773h5.161v7.773h-5.161V2.661zm7.742 0h5.161v7.773h-5.161V2.661zM38.71 3.956c0-.714.579-1.295 1.29-1.295h5.161v7.773H40c-.711 0-1.29-.582-1.29-1.295V3.956zM6.452 77.805c-2.135 0-3.871-1.744-3.871-3.887V44.119h33.548v-2.59H2.581V37.64c0-.713.579-1.295 1.29-1.295H40c.711 0 1.29.582 1.29 1.295v3.887h-2.58v2.591h2.58v29.799c0 2.143-1.736 3.887-3.87 3.887H6.451zm70.967-1.296c0 .715-.579 1.296-1.29 1.296H42.547c.82-1.086 1.324-2.423 1.324-3.887v-3.887h32.258c.711 0 1.29.58 1.29 1.296v5.182zm-1.29-9.069H43.871V37.641c0-2.142-1.737-3.886-3.871-3.886v-20.73h36.129V67.44z"/>
            <path d="M55.52 51.876c2.98 0 6.267-1.372 8.876-3.99 4.488-4.506 5.298-11.023 1.807-14.529-3.492-3.506-9.982-2.692-14.469 1.814-4.486 4.506-5.297 11.023-1.806 14.527 1.46 1.468 3.446 2.178 5.592 2.178zm7.052-5.822c-3.043 3.053-7.136 4.061-9.777 2.597L65.16 36.236c1.455 2.653.454 6.761-2.588 9.818zm-9.015-9.051c2.12-2.128 4.744-3.261 7.037-3.261.998 0 1.923.234 2.725.677l-12.35 12.4c-1.455-2.652-.454-6.76 2.588-9.816zM15.604 54.605c-4.488 4.506-5.298 11.022-1.807 14.528 1.461 1.468 3.447 2.178 5.593 2.178 2.98 0 6.267-1.372 8.876-3.99 4.488-4.506 5.298-11.023 1.806-14.529-3.49-3.508-9.98-2.693-14.468 1.813zm1.824 1.832c2.12-2.126 4.745-3.26 7.037-3.26.998 0 1.923.234 2.725.677l-12.35 12.4c-1.455-2.653-.454-6.761 2.588-9.817zm9.015 9.05c-3.043 3.054-7.136 4.062-9.777 2.598L29.03 55.67c1.455 2.653.454 6.761-2.588 9.818z"/>
        </g>
    </g>
</svg>
