<svg xmlns="http://www.w3.org/2000/svg" width="79" height="80" viewBox="0 0 79 80">
    <g fill="none" fill-rule="nonzero">
        <path fill="#C7A17A" d="M69.294 46.733a8.941 8.941 0 0 1-8.072 5.07v-5.07H17.778v5.07a8.94 8.94 0 0 1-8.072-5.07H5v27.886h69V46.733h-4.706z"/>
        <g fill="#232C38">
            <path d="M75.027 41.446h-3.815V40.18c0-4.121-2.58-7.823-6.358-9.36v-4.077c3.778-1.535 6.358-5.237 6.358-9.36v-1.266c4.208 0 7.63-3.408 7.63-7.6 0-4.19-3.422-7.598-7.63-7.598H7.63C3.423.919 0 4.327 0 8.518c0 4.19 3.423 7.599 7.63 7.599v1.266c0 4.123 2.58 7.823 6.359 9.36v4.079c-3.778 1.536-6.359 5.237-6.359 9.36v1.266H3.816c-2.104 0-3.815 1.704-3.815 3.8v30.395c0 2.094 1.711 3.8 3.815 3.8h71.21c2.104 0 3.816-1.706 3.816-3.8V45.246c0-2.095-1.712-3.8-3.815-3.8zm-6.358-1.266v2.533c0 3.759-2.755 6.888-6.359 7.494v-2.588c2.192-.563 3.815-2.55 3.815-4.906V40.18c0-1.4-.588-2.698-1.557-3.634.181-.443.286-.925.286-1.432v-1.486c2.301 1.34 3.815 3.821 3.815 6.552zM20.347 16.117v1.266c0 .295-.064.582-.163.854a3.79 3.79 0 0 0-2.38-.854 3.79 3.79 0 0 0-2.381.854 2.494 2.494 0 0 1-.163-.854v-1.266h5.087zm-3.815 18.997V21.183a1.271 1.271 0 0 1 2.543 0v13.931a1.271 1.271 0 0 1-2.543 0zm5.042-14.373c.828-.924 1.316-2.109 1.316-3.358v-1.266h2.543v1.266c0 2.73-1.513 5.212-3.815 6.552v-2.752c0-.151-.028-.295-.044-.442zM15.26 40.18c0-.671.289-1.278.736-1.74.54.292 1.15.473 1.807.473.658 0 1.267-.18 1.807-.473.448.462.737 1.07.737 1.74v1.266H15.26V40.18zm6.072-3.634c.182-.442.286-.924.286-1.432v-1.486c2.302 1.342 3.815 3.823 3.815 6.552v1.266H22.89V40.18a5.05 5.05 0 0 0-1.558-3.634zm.286-5.725v-4.078c3.778-1.537 6.358-5.237 6.358-9.36v-1.266h22.89v1.266c0 4.121 2.58 7.823 6.358 9.36v4.079c-3.778 1.535-6.358 5.237-6.358 9.36v1.266h-22.89V40.18c0-4.123-2.58-7.824-6.358-9.36zm38.15 4.293V21.183a1.271 1.271 0 0 1 2.542 0v13.931a1.271 1.271 0 0 1-2.543 0zm3.814-17.73c0 .294-.063.58-.163.853a3.79 3.79 0 0 0-2.38-.854 3.79 3.79 0 0 0-2.38.854 2.494 2.494 0 0 1-.163-.854v-1.266h5.086v1.266zm-6.314 3.357c-.017.147-.044.29-.044.442v2.752c-2.302-1.341-3.815-3.822-3.815-6.552v-1.266h2.543v1.266c0 1.25.489 2.434 1.316 3.358zM53.41 40.18c0-2.73 1.513-5.212 3.815-6.552v1.486c0 .507.104.99.286 1.432a5.053 5.053 0 0 0-1.558 3.634v1.266H53.41V40.18zm5.087 0c0-.671.288-1.278.736-1.74.54.292 1.15.473 1.807.473s1.266-.18 1.807-.473c.447.462.736 1.07.736 1.74v1.266h-5.086V40.18zm10.173-22.797c0 2.73-1.514 5.212-3.815 6.552v-2.752c0-.151-.028-.295-.045-.441.828-.925 1.316-2.109 1.316-3.359V14.85c0-2.355-1.623-4.341-3.815-4.906V7.357c3.604.605 6.359 3.734 6.359 7.493v2.533zM2.544 8.518c0-2.794 2.281-5.066 5.086-5.066h63.582c2.805 0 5.086 2.272 5.086 5.066s-2.28 5.066-5.086 5.066h-.088c-.63-4.99-4.907-8.866-10.085-8.866h-1.272v7.6h1.272c.937 0 1.748.512 2.19 1.266H15.614a2.537 2.537 0 0 1 2.19-1.267h1.271V4.718h-1.272c-5.178 0-9.455 3.876-10.085 8.866H7.63c-2.805 0-5.086-2.272-5.086-5.066zm7.63 8.865V14.85c0-3.759 2.754-6.888 6.358-7.493v2.587c-2.191.564-3.815 2.55-3.815 4.906v2.533c0 1.249.488 2.434 1.316 3.359-.018.147-.044.29-.044.44v2.753c-2.302-1.34-3.815-3.821-3.815-6.552zm0 22.797c0-2.73 1.513-5.212 3.815-6.552v1.486c0 .508.104.99.286 1.432a5.053 5.053 0 0 0-1.558 3.634v2.533c0 2.356 1.624 4.341 3.815 4.906v2.588c-3.604-.606-6.358-3.735-6.358-7.494V40.18zm66.124 35.461c0 .698-.57 1.267-1.271 1.267H3.816c-.701 0-1.272-.569-1.272-1.267V45.246c0-.698.57-1.267 1.272-1.267h3.902c.63 4.99 4.907 8.866 10.085 8.866h1.272v-7.6h-1.272a2.537 2.537 0 0 1-2.19-1.266H63.23a2.537 2.537 0 0 1-2.19 1.267h-1.272v7.599h1.272c5.178 0 9.456-3.876 10.085-8.866h3.903c.7 0 1.271.569 1.271 1.267V75.64z"/>
            <path d="M41.48 51.002v.004h.004z"/>
            <path d="M41.833 51.378c-.12-.124-.228-.254-.353-.376-5.448-5.281-13.577-5.993-18.122-1.586-1.942 1.882-3.011 4.507-3.011 7.388 0 3.668 1.694 7.414 4.646 10.277 3.046 2.952 6.93 4.476 10.556 4.476.492 0 .975-.038 1.456-.095l-.005.006c2.005 1.943 4.706 2.892 7.567 2.892 3.627 0 7.512-1.524 10.556-4.476 2.953-2.862 4.647-6.608 4.647-10.276 0-2.881-1.07-5.506-3.011-7.389-3.66-3.545-9.772-3.835-14.926-.84zM30.93 49.04c2.972 0 6.215 1.293 8.776 3.777 2.463 2.388 3.876 5.472 3.876 8.461 0 1.77-.499 3.345-1.437 4.634L26.168 50.423c1.371-.915 3.013-1.383 4.762-1.383zm-4.164 16.228c-2.465-2.389-3.876-5.473-3.876-8.462 0-1.769.497-3.344 1.437-4.632L40.31 67.669c-3.694 2.475-9.474 1.545-13.544-2.401zm26.58 2.801c-3.967 3.845-9.56 4.83-13.261 2.586a9.877 9.877 0 0 0 3.03-1.988 9.733 9.733 0 0 0 2.368-3.703l6.854-6.645-1.775-1.817L46.1 60.83c-.097-2.578-1.005-5.171-2.6-7.455 3.613-1.949 7.65-2.007 10.442-.148l-1.863 1.806 1.775 1.815 1.932-1.873c.938 1.288 1.437 2.865 1.437 4.634.001 2.989-1.412 6.073-3.876 8.461zM24.162 5.985h25.433v2.533H24.162zM52.137 5.985h2.543v2.533h-2.543z"/>
        </g>
    </g>
</svg>
