<?xml version="1.0" encoding="iso-8859-1"?>
<!-- Generator: Adobe Illustrator 19.0.0, SVG Export Plug-In . SVG Version: 6.00 Build 0)  -->
<svg version="1.1" id="Capa_1" xmlns="http://www.w3.org/2000/svg" xmlns:xlink="http://www.w3.org/1999/xlink" x="0px" y="0px"
	 viewBox="0 0 337.739 337.739" style="enable-background:new 0 0 337.739 337.739;" xml:space="preserve">
<g>
	<g>
		<g>
			<path d="M269.914,63.639c-1.346-10.509,7.605-30.506,11.168-37.325c1.063-2.034,0.606-4.531-1.11-6.055
				c-1.716-1.524-4.248-1.686-6.143-0.39c-0.972,0.665-23.858,16.54-29.094,39.685c-4.061,17.955,0.178,28.329,3.918,37.482
				c3.215,7.865,6.25,15.293,4.284,27.948c-4.135,26.601-14.156,35.193-14.201,35.232c-1.996,1.562-2.506,4.371-1.189,6.536
				c0.933,1.534,2.576,2.401,4.274,2.401c0.698,0,1.406-0.147,2.077-0.452c1.307-0.598,32.071-14.968,38.08-43.3
				c3.374-15.91-0.727-26.327-5.07-37.355C274.09,80.889,271.176,73.487,269.914,63.639z M272.194,123.325
				c-2.089,9.853-8.145,17.828-14.467,23.765c1.986-5.498,3.801-12.278,5.09-20.571c2.394-15.401-1.485-24.892-4.908-33.267
				c-3.643-8.913-6.788-16.611-3.421-31.493c1.44-6.364,4.631-12.177,8.269-17.115c-2.113,6.952-3.526,14.302-2.763,20.263
				c1.42,11.084,4.707,19.434,7.608,26.801C271.705,102.127,274.945,110.356,272.194,123.325z"/>
			<path d="M117.698,208.564c-6.544-7.2-13.311-14.646-19.249-25.778c-6.413-12.024-4.808-39.814-3.648-49.507
				c0.272-2.279-1.041-4.452-3.186-5.268c-2.144-0.816-4.569-0.069-5.881,1.814c-0.833,1.195-20.343,29.603-16.255,58.595
				c3.169,22.476,12.206,32.166,20.946,41.539c7.395,7.929,14.379,15.419,17.777,31.486c7.117,33.661-1.082,48.477-1.137,48.574
				c-1.311,2.169-0.793,4.976,1.207,6.533c0.908,0.707,1.991,1.055,3.07,1.055c1.297,0,2.587-0.502,3.56-1.487
				c1.248-1.264,30.512-31.368,25.051-66.651C136.889,229.68,127.568,219.423,117.698,208.564z M121.031,290.856
				c0.327-8.231-0.337-18.667-3.046-31.479c-3.973-18.786-12.246-27.657-20.247-36.237c-8.037-8.619-15.628-16.76-18.357-36.115
				c-1.541-10.93,0.999-22.073,4.368-31.184c0.188,11.046,1.531,23.503,5.877,31.652c6.523,12.231,14.039,20.501,20.671,27.798
				c9.592,10.554,17.169,18.891,19.772,35.708C132.38,265.923,127.053,280.194,121.031,290.856z"/>
			<path d="M321.008,39.87c-9.194-20.56-24.647-34.232-43.512-38.501C273.479,0.46,269.349,0,265.221,0
				c-35.11,0-67.911,32.344-77.992,76.907c-5.459,24.129-3.523,48.469,5.451,68.536c9.194,20.56,24.647,34.232,43.512,38.501
				c4.015,0.908,8.145,1.369,12.274,1.369c0.003,0,0.003,0,0.005,0c35.107,0,67.906-32.344,77.988-76.907
				C331.918,84.277,329.982,59.937,321.008,39.87z M316.705,106.199c-4.438,19.618-13.947,37.408-26.775,50.093
				c-12.405,12.266-27.129,19.021-41.459,19.021c-0.001,0-0.003,0-0.004,0c-3.387,0-6.775-0.378-10.068-1.123
				c-15.719-3.557-28.714-15.216-36.591-32.83c-8.096-18.107-9.81-40.213-4.825-62.247c4.437-19.617,13.946-37.406,26.775-50.091
				C236.163,16.755,250.889,10,265.221,10c3.387,0,6.775,0.377,10.068,1.122c15.719,3.557,28.714,15.216,36.591,32.83
				C319.976,62.059,321.69,84.166,316.705,106.199z"/>
			<path d="M90.486,106.356c-3.18,0-6.393,0.225-9.548,0.67c-48.2,6.796-80.14,63.924-71.198,127.347
				c8.309,58.928,48.756,103.366,94.084,103.366c3.18,0,6.393-0.226,9.547-0.67c23.625-3.331,44.027-18.602,57.449-43.001
				c13.162-23.926,18.045-53.881,13.75-84.345C176.261,150.794,135.814,106.356,90.486,106.356z M162.058,289.246
				c-11.867,21.572-29.653,35.039-50.083,37.919c-2.694,0.38-5.437,0.573-8.152,0.573c-19.103,0-38.174-9.437-53.699-26.573
				c-15.937-17.591-26.762-41.808-30.482-68.189c-8.173-57.963,19.951-110.022,62.692-116.048c2.694-0.38,5.437-0.573,8.152-0.573
				c19.104,0,38.175,9.437,53.698,26.573c15.938,17.591,26.763,41.808,30.483,68.189
				C178.663,239.454,174.185,267.202,162.058,289.246z"/>
		</g>
	</g>
</g>
<g>
</g>
<g>
</g>
<g>
</g>
<g>
</g>
<g>
</g>
<g>
</g>
<g>
</g>
<g>
</g>
<g>
</g>
<g>
</g>
<g>
</g>
<g>
</g>
<g>
</g>
<g>
</g>
<g>
</g>
</svg>
