<svg xmlns="http://www.w3.org/2000/svg" width="80" height="81" viewBox="0 0 80 81">
    <g fill="none" fill-rule="nonzero">
        <g fill="#C7A17A">
            <path d="M21.966 32.745c0-3.76 2.884-6.808 6.44-6.808H1.357V36.83h21.898l.013-.022a6.994 6.994 0 0 1-1.3-4.062zM50.305 24.576h28.339V38.19h-28.34z"/>
        </g>
        <g fill="#232C38">
            <path d="M56.343 9.139C52.908 3.699 46.875.069 40 .069S27.09 3.7 23.657 9.14H0v71.256h80V9.14H56.343zM40 2.66c9.249 0 16.774 7.555 16.774 16.842v2.591H77.42v20.73H47.283a11.655 11.655 0 0 0 4.33-9.07v-11.66H28.387v2.592c-4.27 0-7.742 3.486-7.742 7.773 0 4.287 3.472 7.774 7.742 7.774h1.964c.654.98 1.454 1.851 2.366 2.59H2.581V22.095h20.645v-2.59C23.226 10.215 30.75 2.66 40 2.66zm14.194 47.936H25.806v-5.182h28.388v5.182zM30.968 33.755v-9.07h18.064v9.07c0 5-4.051 9.069-9.032 9.069-4.98 0-9.032-4.068-9.032-9.07zm-1.903 3.886h-.678c-2.846 0-5.161-2.324-5.161-5.182 0-2.858 2.315-5.182 5.161-5.182v6.478c0 1.364.247 2.669.678 3.886zM2.58 16.912h12.903v-2.591H2.58V11.73h19.691a19.283 19.283 0 0 0-.907 2.59h-3.3v2.592h2.772c-.113.85-.192 1.71-.192 2.591H2.581v-2.591zm0 60.893v-32.39h20.645v32.39H2.58zm23.225-24.616H38.71v24.616H25.806V53.189zM41.29 77.805V53.189h12.904v24.616H41.29zm36.13 0H56.773v-32.39H77.42v32.39zM59.354 19.503c0-.88-.079-1.741-.192-2.591h2.772v-2.591h-3.3a19.465 19.465 0 0 0-.907-2.591h19.691v2.59H64.516v2.592H77.42v2.591H59.355z"/>
            <path d="M41.29 19.503h2.581v-2.285c0-1.293.716-2.455 1.867-3.033a5.953 5.953 0 0 0 3.294-5.351V6.547h-2.58v2.286a3.374 3.374 0 0 1-1.867 3.033 5.953 5.953 0 0 0-3.295 5.35v2.287zM36.129 17.218c0-1.293.716-2.455 1.867-3.033a5.953 5.953 0 0 0 3.294-5.351V6.547h-2.58v2.286a3.374 3.374 0 0 1-1.867 3.033 5.953 5.953 0 0 0-3.295 5.35v2.287h2.581v-2.285zM33.548 60.962h2.581v5.182h-2.581zM43.871 60.962h2.581v5.182h-2.581z"/>
        </g>
    </g>
</svg>
