<svg xmlns="http://www.w3.org/2000/svg" width="75" height="81" viewBox="0 0 75 81">
    <g fill="none" fill-rule="nonzero">
        <path fill="#C7A17A" d="M9 18.143v.757c0 5.786 3.003 11.175 7.972 14.304h25.056C46.997 30.075 50 24.686 50 18.9v-.757H9z"/>
        <path fill="#151D28" d="M75 7.843C75 3.556 71.526.069 67.256.069H7.903C3.633.07.16 3.556.16 7.843s3.472 7.773 7.742 7.773v3.373c0 5.246 2.136 10.148 5.842 13.67-1.877.549-3.262 2.273-3.262 4.335a4.53 4.53 0 0 0 2.933 4.231 3.852 3.852 0 0 0-.352 1.599v.363L9.732 44.3a6.467 6.467 0 0 0-4.41 6.145v8.076a6.47 6.47 0 0 0 4.412 6.147l3.645 1.218a9.067 9.067 0 0 0 2.409 4.143H5.322C2.475 70.03.16 72.354.16 75.212c0 2.858 2.314 5.183 5.16 5.183h64.517V15.163A7.776 7.776 0 0 0 75 7.843zM37.58 2.66a1.295 1.295 0 0 1 0 2.59H24.677a1.295 1.295 0 0 1 0-2.59H37.58zM2.741 7.843c0-2.858 2.315-5.182 5.162-5.182h13.14c-.144.406-.237.84-.237 1.295 0 2.143 1.737 3.887 3.87 3.887H37.58c2.134 0 3.871-1.744 3.871-3.887 0-.456-.093-.889-.237-1.295h13.14c2.847 0 5.161 2.324 5.161 5.182 0 2.858-2.314 5.182-5.16 5.182H7.902c-2.847 0-5.162-2.324-5.162-5.182zm56.774 25.912h-5.16v-5.183h5.16v5.183zm-5.16 10.364h5.16v5.183h-5.16v-5.183zm5.16-2.59h-5.16v-5.183h5.16v5.182zM51.774 25.98V51.893h7.741v18.138H43.888a9.058 9.058 0 0 0 2.724-6.478v-20.73c0-.57-.13-1.11-.352-1.598a4.53 4.53 0 0 0 2.933-4.231c0-2.06-1.385-3.785-3.262-4.335 3.706-3.523 5.843-8.426 5.843-13.67v-3.373h7.741v10.365h-7.741zm-2.581-10.365v3.373c0 5.44-2.676 10.442-7.158 13.47H23.386v-3.887c0-3.572-2.894-6.478-6.451-6.478H10.81c-.195-1.014-.327-2.047-.327-3.105v-3.373h38.71zm-37.675 9.07h5.417c2.134 0 3.87 1.743 3.87 3.886v3.887h-3.164a16.165 16.165 0 0 1-6.123-7.773zM15 35.05h29.678c1.067 0 1.935.872 1.935 1.944a1.942 1.942 0 0 1-1.935 1.943H14.999a1.942 1.942 0 0 1-1.935-1.943c0-1.072.868-1.944 1.935-1.944zM7.903 58.522v-8.076a3.883 3.883 0 0 1 2.646-3.689l2.515-.84v17.136l-2.515-.84a3.886 3.886 0 0 1-2.646-3.69zm7.742 5.031v-20.73c0-.714.579-1.295 1.29-1.295H42.74c.711 0 1.29.58 1.29 1.296v20.73c0 3.571-2.894 6.477-6.451 6.477H22.096c-3.557 0-6.451-2.906-6.451-6.478zm51.612 14.252H5.322a2.589 2.589 0 0 1-2.58-2.591 2.589 2.589 0 0 1 2.58-2.592h56.774V15.616h5.161v62.189zm0-64.78H60.11a7.751 7.751 0 0 0 0-10.364h7.148c2.847 0 5.162 2.324 5.162 5.182 0 2.858-2.315 5.182-5.162 5.182z"/>
        <path fill="#333" d="M38.87 44.12h2.581v2.59H38.87zM18.225 44.12H36.29v2.59H18.225z"/>
    </g>
</svg>
